<?xml version="1.0" encoding="UTF-8"?>
<svg version="1.1" xmlns="http://www.w3.org/2000/svg" width="200" height="200">
<path d="M0 0 C66 0 132 0 200 0 C200 66 200 132 200 200 C134 200 68 200 0 200 C0 134 0 68 0 0 Z " fill="#F7F3EE" transform="translate(0,0)"/>
<path d="M0 0 C3 2 3 2 3.5 4.3125 C2.75405696 8.32194384 1.23809656 9.53904662 -2 12 C-3.61083912 12.48706115 -5.23835563 12.9208031 -6.875 13.3125 C-13.73508556 15.15002292 -16.75959067 19.28371271 -20.31640625 25.18359375 C-24.37954169 33.57885268 -24.55955314 43.7977763 -21.90625 52.6484375 C-21.01309101 54.95922676 -20.09777211 57.26157684 -19.16015625 59.5546875 C-17.91377905 63.2560501 -17.63031474 66.3573726 -17.5 70.25 C-17.17512393 77.68049873 -15.53886433 83.62965302 -10.03125 88.875 C-8.07232375 90.39536067 -6.13614077 91.74294698 -4 93 C-3.13568359 93.556875 -3.13568359 93.556875 -2.25390625 94.125 C4.49576029 96.74532115 13.81220121 96.00049962 20.609375 93.8671875 C28.82213061 89.9651071 33.26058585 85.71780708 36.36685181 77.1809082 C37.37339951 73.71380814 37.479045 70.37294251 37.51171875 66.78125 C37.53864555 65.66623108 37.53864555 65.66623108 37.56611633 64.52868652 C37.61971465 62.18584646 37.6539498 59.84320395 37.6875 57.5 C37.72071792 55.89841028 37.75521163 54.29684649 37.79101562 52.6953125 C37.87541066 48.79701889 37.94245932 44.89877869 38 41 C32.59155806 41.01950159 27.18472484 41.07146505 21.77685547 41.15258789 C19.94003073 41.17568143 18.10307521 41.1901432 16.26611328 41.19555664 C13.61408802 41.20490996 10.96409536 41.24603634 8.3125 41.29296875 C7.50071289 41.2890361 6.68892578 41.28510345 5.85253906 41.28105164 C-2.49154614 41.49112932 -7.78249802 45.75398271 -14 51 C-13.84767072 42.01257272 -10.35020812 33.80294471 -4.2734375 27.09375 C-0.37266752 23.78866411 2.17831189 22.87483328 7.18408203 22.88647461 C8.28018799 22.88659546 9.37629395 22.88671631 10.50561523 22.88684082 C12.23920288 22.89451477 12.23920288 22.89451477 14.0078125 22.90234375 C15.59710571 22.90385437 15.59710571 22.90385437 17.21850586 22.90539551 C21.1873482 22.91063893 25.15617516 22.92460012 29.125 22.9375 C42.428125 22.9684375 42.428125 22.9684375 56 23 C56 52.7 56 82.4 56 113 C50.06 113 44.12 113 38 113 C38 110.69 38 108.38 38 106 C37.09378906 106.40992188 36.18757813 106.81984375 35.25390625 107.2421875 C22.05881633 113.12241062 9.55883487 116.81811536 -4.69921875 111.90625 C-18.9662632 106.28663317 -27.78737926 97.54990594 -34.01953125 83.61328125 C-37.7907137 73.56180292 -37.1377717 62.07662733 -33.0703125 52.26953125 C-32.4090793 50.86742727 -31.71455342 49.4798574 -30.96875 48.12084961 C-29.95420661 45.89974617 -29.64733915 44.21777227 -29.4296875 41.796875 C-27.74650692 26.21307841 -23.33439026 11.62415967 -11 1 C-7.0732364 -1.42468121 -4.49115672 -0.97988874 0 0 Z " fill="#1D1D1C" transform="translate(85,39)"/>
<path d="M0 0 C1.625 1.875 1.625 1.875 2.125 5.375 C1.625 8.875 1.625 8.875 -0.05859375 10.5 C-3.46466527 12.52181649 -6.98435382 13.15772923 -10.81640625 14.03125 C-13.5928255 14.94683253 -14.46873151 15.73108 -16.375 17.875 C-17.17292969 18.43316406 -17.97085938 18.99132812 -18.79296875 19.56640625 C-22.1562795 22.57354188 -23.75402511 25.78779042 -25.6875 29.8125 C-26.04650391 30.51568359 -26.40550781 31.21886719 -26.77539062 31.94335938 C-28.62980173 35.71222919 -29.87194947 38.57091226 -29.375 42.875 C-28.84390625 42.39289063 -28.3128125 41.91078125 -27.765625 41.4140625 C-27.05921875 40.78242187 -26.3528125 40.15078125 -25.625 39.5 C-24.92890625 38.87351563 -24.2328125 38.24703125 -23.515625 37.6015625 C-18.5542457 33.59986606 -14.6441265 33.60291603 -8.453125 33.6796875 C-7.59313904 33.6825174 -6.73315308 33.68534729 -5.84710693 33.68826294 C-3.10626179 33.6994385 -0.36574602 33.72453821 2.375 33.75 C4.23567236 33.7600332 6.09634985 33.76915845 7.95703125 33.77734375 C12.51314732 33.79936924 17.06901786 33.83388103 21.625 33.875 C21.72482927 38.5339553 21.79691433 43.19227078 21.84472656 47.85205078 C21.86468422 49.43289045 21.8918606 51.01365783 21.92675781 52.59423828 C22.35524139 72.51872481 22.35524139 72.51872481 15.77661133 79.96801758 C13.83891417 81.84552342 11.85703764 83.36155002 9.625 84.875 C8.99078125 85.30941406 8.3565625 85.74382812 7.703125 86.19140625 C0.57719403 90.1548601 -8.47576681 90.13151826 -16.375 88.875 C-23.60240414 86.38717496 -28.62364267 81.45254884 -32.375 74.875 C-34.27646397 70.95445572 -34.59227395 67.7727912 -34.6875 63.4375 C-34.97667634 58.09329876 -35.91919247 53.94938897 -37.9375 49 C-41.48976631 39.80954355 -42.13853811 29.87688152 -38.875 20.4375 C-35.99707112 14.48038847 -32.04706561 8.40778414 -25.7734375 5.7890625 C-24.0466433 5.3153402 -22.30919372 4.87844614 -20.5625 4.484375 C-17.66420505 3.67699284 -16.36035389 2.07307038 -14.375 -0.125 C-9.10889411 -2.52909182 -5.22458481 -2.47480333 0 0 Z " fill="#F5F2EC" transform="translate(101.375,46.125)"/>
<path d="M0 0 C7 1 7 1 10 3 C10.33 2.34 10.66 1.68 11 1 C16.445 2.485 16.445 2.485 22 4 C22 4.66 22 5.32 22 6 C25.96 6 29.92 6 34 6 C33.54356532 10.90667279 32.2542311 13.33899001 29 17 C28.67 17.66 28.34 18.32 28 19 C27.34 19 26.68 19 26 19 C25.7525 19.639375 25.505 20.27875 25.25 20.9375 C24 23 24 23 21.875 23.75 C20.946875 23.87375 20.946875 23.87375 20 24 C19.67 25.65 19.34 27.3 19 29 C18.01 29 17.02 29 16 29 C15.71125 30.0725 15.4225 31.145 15.125 32.25 C14.27055437 35.09815211 13.54601451 37.48772642 12 40 C11.01 40.495 11.01 40.495 10 41 C9.27840576 42.64363134 8.60648579 44.31050386 8 46 C7.01 45.34 6.02 44.68 5 44 C5 43.34 5 42.68 5 42 C5.66 42 6.32 42 7 42 C7.99 39.03 8.98 36.06 10 33 C10.66 33 11.32 33 12 33 C12.33 31.35 12.66 29.7 13 28 C13.66 28 14.32 28 15 28 C15.103125 27.4225 15.20625 26.845 15.3125 26.25 C16.73133756 21.60653163 20.54366344 18.17662225 23.6953125 14.5859375 C25.08369625 13.01833334 25.08369625 13.01833334 26 11 C24.02 11.66 22.04 12.32 20 13 C20 13.66 20 14.32 20 15 C17.734375 16.91015625 17.734375 16.91015625 14.75 19.0625 C13.28820312 20.13177734 13.28820312 20.13177734 11.796875 21.22265625 C9.38687213 22.75415249 7.77871057 23.56996146 5 24 C5 24.66 5 25.32 5 26 C3.35 26.99 1.7 27.98 0 29 C0 19.43 0 9.86 0 0 Z " fill="#DABFD9" transform="translate(0,122)"/>
<path d="M0 0 C7.625 0.875 7.625 0.875 11 2 C11 10.91 11 19.82 11 29 C1 27 1 27 -3.0625 25.9375 C-6.67020341 25.00271045 -10.24051455 24.57769236 -13.9453125 24.21875 C-16.33429449 23.96440971 -18.65725889 23.52900606 -21 23 C-21 22.34 -21 21.68 -21 21 C-19.453125 19.84375 -19.453125 19.84375 -17.25 18.5 C-12.47917557 15.45091984 -8.24594223 11.96406992 -3.98730469 8.25195312 C-0.20497942 5 -0.20497942 5 2 5 C2 4.34 2 3.68 2 3 C1.34 3 0.68 3 0 3 C0 2.01 0 1.02 0 0 Z " fill="#EAE0E4" transform="translate(189,56)"/>
<path d="M0 0 C0.33 0 0.66 0 1 0 C1.06058594 0.85464844 1.12117188 1.70929688 1.18359375 2.58984375 C1.26738281 3.69457031 1.35117187 4.79929688 1.4375 5.9375 C1.51871094 7.03964844 1.59992187 8.14179688 1.68359375 9.27734375 C1.70418084 11.91109903 1.70418084 11.91109903 3 13 C3.09911078 14.3473456 3.13079761 15.69979678 3.1328125 17.05078125 C3.13474609 17.88963867 3.13667969 18.72849609 3.13867188 19.59277344 C3.13416016 20.4902832 3.12964844 21.38779297 3.125 22.3125 C3.12306641 23.21645508 3.12113281 24.12041016 3.11914062 25.05175781 C3.0760838 31.74709415 2.75762617 38.34371296 2 45 C1.67 45 1.34 45 1 45 C0.34 39.39 -0.32 33.78 -1 28 C-1.33 30.31 -1.66 32.62 -2 35 C-2.66 35 -3.32 35 -4 35 C-3.67 30.05 -3.34 25.1 -3 20 C-2.01 19.67 -1.02 19.34 0 19 C-0.33 17.68 -0.66 16.36 -1 15 C-1.99 15.33 -2.98 15.66 -4 16 C-4.33 21.28 -4.66 26.56 -5 32 C-5.33 32 -5.66 32 -6 32 C-6 36.62 -6 41.24 -6 46 C-8 44 -8 44 -9 39 C-11.31 45.93 -13.62 52.86 -16 60 C-16.66 60 -17.32 60 -18 60 C-18.125 52.25 -18.125 52.25 -17 50 C-16.34 50 -15.68 50 -15 50 C-15.22042969 49.05511719 -15.44085937 48.11023438 -15.66796875 47.13671875 C-16.39033682 42.03908403 -14.83437684 37.64064542 -13.3125 32.8125 C-13.05533203 31.92369141 -12.79816406 31.03488281 -12.53320312 30.11914062 C-11.11321833 25.47540655 -9.98173324 22.07955403 -6 19 C-9.16115776 20.36983503 -9.9927092 20.9890638 -12 24 C-12.66 24 -13.32 24 -14 24 C-14.12375 24.7425 -14.2475 25.485 -14.375 26.25 C-14.97122525 28.8733911 -15.49197386 30.77764568 -17 33 C-19 33.6875 -19 33.6875 -21 34 C-21.99 34.495 -21.99 34.495 -23 35 C-22.67 33.35 -22.34 31.7 -22 30 C-26.95 32.475 -26.95 32.475 -32 35 C-31 32 -31 32 -29.109375 30.7890625 C-28.33078125 30.40492188 -27.5521875 30.02078125 -26.75 29.625 C-22.71558956 27.51479168 -20.09858863 25.28638188 -17 22 C-16.34 22 -15.68 22 -15 22 C-14.71125 21.360625 -14.4225 20.72125 -14.125 20.0625 C-13 18 -13 18 -11 17 C-10.67 16.01 -10.34 15.02 -10 14 C-9.34 14 -8.68 14 -8 14 C-7.67 13.01 -7.34 12.02 -7 11 C-6.34 11.33 -5.68 11.66 -5 12 C-5.33 12.66 -5.66 13.32 -6 14 C-5.34 14 -4.68 14 -4 14 C-3.67 13.01 -3.34 12.02 -3 11 C-2.34 11 -1.68 11 -1 11 C-1.01160156 10.28972656 -1.02320312 9.57945312 -1.03515625 8.84765625 C-1.04417969 7.92855469 -1.05320312 7.00945312 -1.0625 6.0625 C-1.07410156 5.14597656 -1.08570312 4.22945312 -1.09765625 3.28515625 C-1 1 -1 1 0 0 Z " fill="#E7DBE2" transform="translate(47,140)"/>
<path d="M0 0 C0.66 0 1.32 0 2 0 C3.38232443 1.62626404 4.71937515 3.2925002 6 5 C5.01 5 4.02 5 3 5 C3.31710938 6.134375 3.63421875 7.26875 3.9609375 8.4375 C5.09158809 12.96010234 5.4311983 17.35610712 5.625 22 C5.74875 24.64 5.8725 27.28 6 30 C-1.92 30 -9.84 30 -18 30 C-15.74733638 23.24200913 -15.74733638 23.24200913 -13.1875 20 C-12.65898438 19.32324219 -12.13046875 18.64648438 -11.5859375 17.94921875 C-10.17946079 16.22056881 -8.75410803 14.51185007 -7.3125 12.8125 C-4.0106099 8.79668772 -1.8069062 4.86474747 0 0 Z " fill="#F8F2EF" transform="translate(109,170)"/>
<path d="M0 0 C3 2 3 2 3.5 4.3125 C2.75405696 8.32194384 1.23809656 9.53904662 -2 12 C-3.61083912 12.48706115 -5.23835563 12.9208031 -6.875 13.3125 C-12.80925069 14.90203144 -15.72670088 17.89852849 -19 23 C-23.1085965 30.34035837 -23.73981564 37.70011878 -24 46 C-24.433125 45.0409375 -24.433125 45.0409375 -24.875 44.0625 C-25.82823451 41.84793921 -25.82823451 41.84793921 -28 41 C-28.33 42.32 -28.66 43.64 -29 45 C-28.54415519 28.11094972 -23.96335723 15.48384584 -12.7109375 2.59375 C-8.51368432 -1.31602009 -5.53602993 -1.20786108 0 0 Z " fill="#222221" transform="translate(85,39)"/>
<path d="M0 0 C1.98 0 3.96 0 6 0 C6 0.66 6 1.32 6 2 C7.175625 2.4640625 7.175625 2.4640625 8.375 2.9375 C11 4 11 4 13 5 C14.093125 4.979375 15.18625 4.95875 16.3125 4.9375 C19.8933284 4.99819201 21.78379433 5.60920836 25 7 C26.32 7 27.64 7 29 7 C29 7.66 29 8.32 29 9 C29.99 9 30.98 9 32 9 C32 14.61 32 20.22 32 26 C30.68 25.01 29.36 24.02 28 23 C28 22.34 28 21.68 28 21 C26.68 20.67 25.36 20.34 24 20 C24 19.34 24 18.68 24 18 C23.34 18 22.68 18 22 18 C22 17.34 22 16.68 22 16 C21.1028125 15.8453125 21.1028125 15.8453125 20.1875 15.6875 C17.69130983 14.90298309 16.74268135 13.90110692 15 12 C14.34 11.67 13.68 11.34 13 11 C13 9.68 13 8.36 13 7 C11.68 7 10.36 7 9 7 C9 6.34 9 5.68 9 5 C8.01 5 7.02 5 6 5 C6.4125 5.57105469 6.825 6.14210937 7.25 6.73046875 C24 30.24776786 24 30.24776786 24 41 C22.68 40.67 21.36 40.34 20 40 C18.86235649 35.73383684 18 32.43513689 18 28 C17.34 28 16.68 28 16 28 C16 26.68 16 25.36 16 24 C15.01 23.67 14.02 23.34 13 23 C11.82421875 21.21484375 11.82421875 21.21484375 10.6875 18.9375 C8.55689459 14.88934972 6.14188256 11.32969638 3.33203125 7.7265625 C0 3.40762463 0 3.40762463 0 0 Z " fill="#DDC9DB" transform="translate(168,131)"/>
<path d="M0 0 C7.24705882 0.82352941 7.24705882 0.82352941 10 4 C10.5 7.5 10.5 7.5 10 11 C7.612254 13.52820165 6.16680463 13.97954283 2.6875 14.40625 C0.22916667 14.46875 -2.22916667 14.53125 -4.6875 14.59375 C-8.18734743 15.02297657 -9.40509163 15.74146864 -12 18 C-12.66 18 -13.32 18 -14 18 C-14.268125 18.5671875 -14.53625 19.134375 -14.8125 19.71875 C-16.47744027 22.91718788 -18.52717775 25.80967951 -20.5625 28.78125 C-23.48979008 33.29945861 -24.42510882 36.85083948 -25.125 42.25 C-25.29257813 43.51328125 -25.46015625 44.7765625 -25.6328125 46.078125 C-25.75398438 47.04234375 -25.87515625 48.0065625 -26 49 C-29.55945205 43.66082193 -28.85020377 36.23925582 -28 30 C-25.55312217 21.91270894 -21.46406257 16.04243234 -14 12 C-12.75965916 11.45656466 -11.50990015 10.93390606 -10.25 10.4375 C-6.57056809 8.81005896 -5.24236817 7.28346767 -3 4 C-2.13375 2.8553125 -2.13375 2.8553125 -1.25 1.6875 C-0.8375 1.130625 -0.425 0.57375 0 0 Z " fill="#795291" transform="translate(93,44)"/>
<path d="M0 0 C0 0.99 0 1.98 0 3 C2.64 3 5.28 3 8 3 C8 3.99 8 4.98 8 6 C7.34 6 6.68 6 6 6 C6 6.99 6 7.98 6 9 C6.62648438 9.19335938 7.25296875 9.38671875 7.8984375 9.5859375 C8.71570312 9.84632812 9.53296875 10.10671875 10.375 10.375 C11.18710937 10.63023438 11.99921875 10.88546875 12.8359375 11.1484375 C15 12 15 12 17 14 C16.01 14.495 16.01 14.495 15 15 C15.99 15.33 16.98 15.66 18 16 C18.33 15.34 18.66 14.68 19 14 C19.99 13.67 20.98 13.34 22 13 C20.49946106 16.11650396 18.93818042 19.13149298 17 22 C16.01 22.33 15.02 22.66 14 23 C14.33 21.68 14.66 20.36 15 19 C9.24377518 20.83531806 3.64172547 22.90087527 -1.93359375 25.23046875 C-4 26 -4 26 -6 26 C-6 17.75 -6 9.5 -6 1 C-3 0 -3 0 0 0 Z " fill="#F5F1EC" transform="translate(6,84)"/>
<path d="M0 0 C4.37778684 0.6683644 8.22371853 2.22910442 12.25 4 C12.88679687 4.27328125 13.52359375 4.5465625 14.1796875 4.828125 C18.85925752 6.85925752 18.85925752 6.85925752 20 8 C20.07313567 10.53049402 20.09247527 13.03304837 20.0625 15.5625 C20.05798828 16.27341797 20.05347656 16.98433594 20.04882812 17.71679688 C20.03700864 19.47790013 20.01907263 21.23896036 20 23 C16.37 23 12.74 23 9 23 C5.35329853 15.47056459 2.08852505 8.11593505 0 0 Z " fill="#DEC4DC" transform="translate(180,177)"/>
<path d="M0 0 C1.32 0.33 2.64 0.66 4 1 C3.125 6.75 3.125 6.75 2 9 C1.81857057 10.87189095 1.67892497 12.74794444 1.5625 14.625 C0.51068545 28.10440802 0.51068545 28.10440802 -4 32 C-4 32.99 -4 33.98 -4 35 C-7.91841827 33.69386058 -10.32640809 32.16870152 -13 29 C-13 28.34 -13 27.68 -13 27 C-15.475 26.01 -15.475 26.01 -18 25 C-18 23.68 -18 22.36 -18 21 C-17.34 21 -16.68 21 -16 21 C-15.67 22.32 -15.34 23.64 -15 25 C-14.01 25 -13.02 25 -12 25 C-11.67 25.66 -11.34 26.32 -11 27 C-10.20046862 23.71303767 -9.90341064 22.28976808 -11 19 C-11 18.34 -11 17.68 -11 17 C-11.31478446 15.66216607 -11.64587656 14.32796291 -12 13 C-11.34 12.67 -10.68 12.34 -10 12 C-10 12.66 -10 13.32 -10 14 C-9.01 14 -8.02 14 -7 14 C-6.67 16.31 -6.34 18.62 -6 21 C-5.67 21 -5.34 21 -5 21 C-4.81824219 20.07380859 -4.81824219 20.07380859 -4.6328125 19.12890625 C-3.76554692 14.74587942 -2.88193353 10.36711747 -1.9375 6 C-1.78152344 5.278125 -1.62554687 4.55625 -1.46484375 3.8125 C-1 2 -1 2 0 0 Z " fill="#E0CCDD" transform="translate(49,19)"/>
<path d="M0 0 C0.66 0 1.32 0 2 0 C5.00559652 5.00932754 5.29341888 8.32723489 5 14 C4.67 12.68 4.34 11.36 4 10 C3.34 10 2.68 10 2 10 C1.67 12.31 1.34 14.62 1 17 C1.66 16.67 2.32 16.34 3 16 C3.33 17.32 3.66 18.64 4 20 C0.32733019 22.35050868 -2.7109204 22.36348132 -7 22 C-9.463487 21.17084971 -11.6562575 20.14795551 -14 19 C-11.81789472 12.63552628 -7.67564936 8.67564936 -3 4 C-2.443125 3.236875 -1.88625 2.47375 -1.3125 1.6875 C-0.6628125 0.8521875 -0.6628125 0.8521875 0 0 Z " fill="#E0D4D9" transform="translate(60,178)"/>
<path d="M0 0 C0 0.66 0 1.32 0 2 C6.93 2.33 13.86 2.66 21 3 C21 3.99 21 4.98 21 6 C19.68 6.33 18.36 6.66 17 7 C17.66 7.66 18.32 8.32 19 9 C16.73044814 9.22185844 14.45926245 9.42705515 12.1875 9.625 C10.92292969 9.74101563 9.65835938 9.85703125 8.35546875 9.9765625 C5 10 5 10 2 8 C2.33 9.2375 2.66 10.475 3 11.75 C3.79891159 14.74591845 4 16.80107719 4 20 C3.34 20 2.68 20 2 20 C2 21.32 2 22.64 2 24 C1.34 24 0.68 24 0 24 C-0.5625 22.0625 -0.5625 22.0625 -1 20 C-0.67 19.67 -0.34 19.34 0 19 C-0.82442994 15.19493873 -1.70206703 11.72131139 -3.1875 8.125 C-3.455625 7.42375 -3.72375 6.7225 -4 6 C-3.67 5.34 -3.34 4.68 -3 4 C-3.99 3.67 -4.98 3.34 -6 3 C-6 2.34 -6 1.68 -6 1 C-3.92446352 0.4465236 -2.15634036 0 0 0 Z " fill="#DAC3D7" transform="translate(173,98)"/>
<path d="M0 0 C-0.38895251 5.44533513 -2.2148953 8.12686961 -6 12 C-8.83186859 14.17109925 -9.96379046 14.00249721 -13.625 13.75 C-17 13 -17 13 -19 11 C-19 6.73329768 -18.65618894 4.69165862 -15.6875 1.5625 C-10.98587233 -1.15219902 -5.22691626 -0.30448056 0 0 Z " fill="#232321" transform="translate(99,92)"/>
<path d="M0 0 C5.2699422 0 6.61152773 0.13489929 11 2 C12.9924325 2.37593066 14.9918674 2.71979545 17 3 C17.33 2.34 17.66 1.68 18 1 C18.625 2.875 18.625 2.875 19 5 C18.34 5.66 17.68 6.32 17 7 C15.68 7 14.36 7 13 7 C12.34 8.98 11.68 10.96 11 13 C9.02 13.33 7.04 13.66 5 14 C5 14.66 5 15.32 5 16 C3.35 17.32 1.7 18.64 0 20 C0 13.4 0 6.8 0 0 Z " fill="#F7F0EF" transform="translate(0,127)"/>
<path d="M0 0 C5.02391232 3.76793424 8.80023797 6.68673089 13 11 C13.928125 11.70125 14.85625 12.4025 15.8125 13.125 C16.534375 13.74375 17.25625 14.3625 18 15 C18 15.99 18 16.98 18 18 C17.32453125 17.96519531 16.6490625 17.93039063 15.953125 17.89453125 C15.06109375 17.86746094 14.1690625 17.84039062 13.25 17.8125 C12.36828125 17.77769531 11.4865625 17.74289063 10.578125 17.70703125 C7.51699223 18.05488725 6.39266012 19.14714734 4 21 C2.68 21 1.36 21 0 21 C0 14.07 0 7.14 0 0 Z " fill="#E5D2E4" transform="translate(0,45)"/>
<path d="M0 0 C7.625 0.875 7.625 0.875 11 2 C11 2.99 11 3.98 11 5 C7.66666667 8 7.66666667 8 5 8 C5 8.66 5 9.32 5 10 C4.43152344 10.24234375 3.86304688 10.4846875 3.27734375 10.734375 C-1.68616339 12.88881883 -6.33792375 15.25760221 -11 18 C-12.32646156 18.6802367 -13.65608877 19.35492261 -15 20 C-13.35 20.33 -11.7 20.66 -10 21 C-10 21.66 -10 22.32 -10 23 C-8.948125 22.95875 -7.89625 22.9175 -6.8125 22.875 C-3.25989827 22.99147875 -1.15133359 23.47208068 2 25 C-1.80988344 26.34913578 -4.99895464 25.7386901 -8.9375 25.125 C-10.14277344 24.94195312 -11.34804687 24.75890625 -12.58984375 24.5703125 C-15.407611 24.09907078 -18.2037507 23.58365735 -21 23 C-21 22.34 -21 21.68 -21 21 C-19.453125 19.84375 -19.453125 19.84375 -17.25 18.5 C-12.47917557 15.45091984 -8.24594223 11.96406992 -3.98730469 8.25195312 C-0.20497942 5 -0.20497942 5 2 5 C2 4.34 2 3.68 2 3 C1.34 3 0.68 3 0 3 C0 2.01 0 1.02 0 0 Z " fill="#F0E5EA" transform="translate(189,56)"/>
<path d="M0 0 C1.32 0 2.64 0 4 0 C4 7.59 4 15.18 4 23 C2 21 2 21 1 16 C-1.31 22.93 -3.62 29.86 -6 37 C-6.66 37 -7.32 37 -8 37 C-8.125 29.25 -8.125 29.25 -7 27 C-6.34 27 -5.68 27 -5 27 C-5.22558594 26.06027344 -5.45117188 25.12054688 -5.68359375 24.15234375 C-6.42569841 18.95761116 -4.67144727 14.4527139 -3.0625 9.5625 C-2.77181641 8.64017578 -2.48113281 7.71785156 -2.18164062 6.76757812 C-1.46724387 4.50727363 -0.73985326 2.25207379 0 0 Z " fill="#E1C9E0" transform="translate(37,163)"/>
<path d="M0 0 C0.66 0 1.32 0 2 0 C3.38232443 1.62626404 4.71937515 3.2925002 6 5 C5.01 5 4.02 5 3 5 C3.31710938 6.134375 3.63421875 7.26875 3.9609375 8.4375 C5.09157036 12.96003145 5.43179616 17.35505777 5.625 22 C5.66367188 22.77472656 5.70234375 23.54945313 5.7421875 24.34765625 C5.83521357 26.23143415 5.91863175 28.11568256 6 30 C4.68 30 3.36 30 2 30 C1.67 22.41 1.34 14.82 1 7 C0.34 7 -0.32 7 -1 7 C-1.2475 8.03125 -1.495 9.0625 -1.75 10.125 C-2.83044216 13.94869248 -4.77989738 16.70348399 -7 20 C-8.13348232 22.63522682 -9.06370144 25.28473417 -10 28 C-11.2265625 26.484375 -11.2265625 26.484375 -12 24 C-10.91716396 21.23607596 -9.7915891 18.83347436 -8.375 16.25 C-8.01792969 15.57195312 -7.66085938 14.89390625 -7.29296875 14.1953125 C-6.57174898 12.82577604 -5.84485049 11.45921504 -5.11230469 10.09570312 C-3.34317623 6.76247252 -1.67541404 3.38115231 0 0 Z " fill="#DBC4DA" transform="translate(109,170)"/>
<path d="M0 0 C0.33 1.32 0.66 2.64 1 4 C2.32 3.34 3.64 2.68 5 2 C4.67257812 2.55171875 4.34515625 3.1034375 4.0078125 3.671875 C2.83212285 6.38780923 2.79751362 8.30551759 2.875 11.25 C2.91625 12.8175 2.9575 14.385 3 16 C-1.62 16 -6.24 16 -11 16 C-11 14.35 -11 12.7 -11 11 C-10.01 10.67 -9.02 10.34 -8 10 C-7.731875 9.2575 -7.46375 8.515 -7.1875 7.75 C-5.55027814 3.95853885 -3.26664874 2.48549361 0 0 Z " fill="#E3CBE0" transform="translate(11,184)"/>
<path d="M0 0 C1.65 0 3.3 0 5 0 C5.25394531 1.08796875 5.50789063 2.1759375 5.76953125 3.296875 C7.77856658 11.88227013 9.82654607 20.45437433 12 29 C11.01 29.33 10.02 29.66 9 30 C8.34 29.67 7.68 29.34 7 29 C6.25390625 26.59375 6.25390625 26.59375 5.5625 23.5 C4.6671254 19.66397887 3.703915 15.95799697 2.375 12.25 C0.94870654 8.16527474 0.39126513 4.30391643 0 0 Z " fill="#E1CADF" transform="translate(28,0)"/>
<path d="M0 0 C0.99 0.33 1.98 0.66 3 1 C3 2.32 3 3.64 3 5 C3.60521484 5.25724854 4.21042969 5.51449707 4.83398438 5.77954102 C7.23222634 7.13084981 8.15880378 8.24478625 9.65625 10.52734375 C10.11990967 11.23221924 10.58356934 11.93709473 11.0612793 12.66333008 C11.53605713 13.41380615 12.01083496 14.16428223 12.5 14.9375 C12.98831299 15.70151123 13.47662598 16.46552246 13.97973633 17.25268555 C18.24180068 24.08364568 22 30.78997941 22 39 C20.68 38.67 19.36 38.34 18 38 C16.86235649 33.73383684 16 30.43513689 16 26 C15.34 26 14.68 26 14 26 C14 24.68 14 23.36 14 22 C13.01 21.67 12.02 21.34 11 21 C9.82421875 19.21484375 9.82421875 19.21484375 8.6875 16.9375 C6.54888837 12.84284114 4.08772431 9.36988538 1.13671875 5.82421875 C0 4 0 4 0 0 Z " fill="#D8C2D5" transform="translate(170,133)"/>
<path d="M0 0 C1.32 0.33 2.64 0.66 4 1 C3.67 1.66 3.34 2.32 3 3 C2.34 3 1.68 3 1 3 C0.7525 3.639375 0.505 4.27875 0.25 4.9375 C-1 7 -1 7 -3.125 7.75 C-4.053125 7.87375 -4.053125 7.87375 -5 8 C-5.33 9.65 -5.66 11.3 -6 13 C-6.99 13 -7.98 13 -9 13 C-9.28875 14.0725 -9.5775 15.145 -9.875 16.25 C-10.72944563 19.09815211 -11.45398549 21.48772642 -13 24 C-13.66 24.33 -14.32 24.66 -15 25 C-15.72159424 26.64363134 -16.39351421 28.31050386 -17 30 C-17.99 29.34 -18.98 28.68 -20 28 C-20 27.34 -20 26.68 -20 26 C-19.34 26 -18.68 26 -18 26 C-17.01 23.03 -16.02 20.06 -15 17 C-14.34 17 -13.68 17 -13 17 C-12.67 15.35 -12.34 13.7 -12 12 C-11.34 12 -10.68 12 -10 12 C-9.896875 11.4225 -9.79375 10.845 -9.6875 10.25 C-8.62236619 6.76410753 -6.54548461 4.54548461 -4 2 C-3.67 2.66 -3.34 3.32 -3 4 C-2.01 2.68 -1.02 1.36 0 0 Z " fill="#E1CCDD" transform="translate(25,138)"/>
<path d="M0 0 C1.4589426 0.47730838 2.91713496 0.95691042 4.375 1.4375 C5.18710938 1.70433594 5.99921875 1.97117188 6.8359375 2.24609375 C9 3 9 3 11 4 C11 7.96 11 11.92 11 16 C8.36 16 5.72 16 3 16 C-0.42857143 8.71428571 -0.42857143 8.71428571 0 4 C0.99 4.99 1.98 5.98 3 7 C2.690625 6.401875 2.38125 5.80375 2.0625 5.1875 C1 3 1 3 0 0 Z " fill="#F8EEF2" transform="translate(189,184)"/>
<path d="M0 0 C0 3.96 0 7.92 0 12 C-4.50258143 10.85228317 -8.10612956 9.5257538 -12 7 C-13.3279693 6.32271147 -14.6605205 5.65422999 -16 5 C-14.08717875 4.15787744 -12.16957527 3.32661136 -10.25 2.5 C-9.18265625 2.0359375 -8.1153125 1.571875 -7.015625 1.09375 C-4 0 -4 0 0 0 Z " fill="#F8F3F0" transform="translate(200,71)"/>
<path d="M0 0 C3.19077549 1.2763102 4.88343584 3.34614909 7.1875 5.875 C7.65929687 6.38933594 8.13109375 6.90367187 8.6171875 7.43359375 C12.1875 11.47793079 12.1875 11.47793079 12.1875 14.875 C9.69388429 13.67118552 7.50606917 12.42071278 5.1875 10.875 C5.1875 12.195 5.1875 13.515 5.1875 14.875 C6.1775 15.205 7.1675 15.535 8.1875 15.875 C9.875 17.9375 9.875 17.9375 11.1875 19.875 C10.8575 20.535 10.5275 21.195 10.1875 21.875 C3.15282648 16.32131038 3.15282648 16.32131038 1.8125 11.0625 C0.63254786 6.8812337 -0.74169038 4.05169961 -3.8125 0.875 C-1.8125 -0.125 -1.8125 -0.125 0 0 Z " fill="#DECFD9" transform="translate(118.8125,174.125)"/>
<path d="M0 0 C1.49080078 0.02707031 1.49080078 0.02707031 3.01171875 0.0546875 C3.77097656 0.07789063 4.53023437 0.10109375 5.3125 0.125 C5.3125 0.455 5.3125 0.785 5.3125 1.125 C4.054375 1.393125 2.79625 1.66125 1.5 1.9375 C-1.79567502 2.7643097 -3.51580725 3.43623755 -5.6875 6.125 C-6.450625 6.62 -7.21375 7.115 -8 7.625 C-12.07421546 11.41496787 -14.21236328 16.19173781 -16.6875 21.125 C-17.0175 21.125 -17.3475 21.125 -17.6875 21.125 C-17.6875 19.475 -17.6875 17.825 -17.6875 16.125 C-18.3475 15.795 -19.0075 15.465 -19.6875 15.125 C-8.61952629 -0.20281238 -8.61952629 -0.20281238 0 0 Z " fill="#EDE7E8" transform="translate(90.6875,57.875)"/>
<path d="M0 0 C0 2.31 0 4.62 0 7 C-15.03045685 14 -15.03045685 14 -22 14 C-22 13.34 -22 12.68 -22 12 C-9.93103448 5 -9.93103448 5 -6 5 C-6 4.34 -6 3.68 -6 3 C-2.53846154 0 -2.53846154 0 0 0 Z " fill="#F9F0F0" transform="translate(200,61)"/>
<path d="M0 0 C5.69168357 2.35091278 5.69168357 2.35091278 7.1875 5.5 C7.455625 6.325 7.72375 7.15 8 8 C8.98095748 9.01868662 9.97702078 10.02351983 11 11 C11 11.66 11 12.32 11 13 C11.5775 13.2475 12.155 13.495 12.75 13.75 C15.3002997 15.16683317 17.01785701 16.87627537 19 19 C18.67 19.66 18.34 20.32 18 21 C16.68 19.68 15.36 18.36 14 17 C13.34 17.66 12.68 18.32 12 19 C11.8453125 18.0409375 11.8453125 18.0409375 11.6875 17.0625 C11.460625 16.381875 11.23375 15.70125 11 15 C10.01 14.67 9.02 14.34 8 14 C7.34 13.01 6.68 12.02 6 11 C6.33 13.31 6.66 15.62 7 18 C4.56574148 15.56574148 3.70163459 13.29806168 2.375 10.125 C1.92898437 9.07570312 1.48296875 8.02640625 1.0234375 6.9453125 C0 4 0 4 0 0 Z " fill="#E8DCE3" transform="translate(145,150)"/>
<path d="M0 0 C1.9587043 0.14076315 3.91696093 0.2877676 5.875 0.4375 C7.51082031 0.55931641 7.51082031 0.55931641 9.1796875 0.68359375 C12 1 12 1 14 2 C14 3.65 14 5.3 14 7 C8.72 7 3.44 7 -2 7 C-2 3 -2 3 0 0 Z " fill="#D9BEDA" transform="translate(141,193)"/>
<path d="M0 0 C0.99 0 1.98 0 3 0 C3.66 0.66 4.32 1.32 5 2 C7.06874034 2.6425235 7.06874034 2.6425235 9 3 C8.5206753 7.31392226 7.2542015 9.16569547 4 12 C1.525 11.01 1.525 11.01 -1 10 C-1 9.34 -1 8.68 -1 8 C-1.66 7.67 -2.32 7.34 -3 7 C-1.125 2.25 -1.125 2.25 0 0 Z " fill="#1A1B1A" transform="translate(79,39)"/>
<path d="M0 0 C0.66 0 1.32 0 2 0 C1.5547115 5.27315333 0.91626837 10.01770224 -1 15 C-3.97 14.67 -6.94 14.34 -10 14 C-10 11 -10 11 -8 8.8125 C-7.34 8.214375 -6.68 7.61625 -6 7 C-5.67 7.33 -5.34 7.66 -5 8 C-4.66226563 7.4225 -4.32453125 6.845 -3.9765625 6.25 C-3.53054687 5.5075 -3.08453125 4.765 -2.625 4 C-2.18414062 3.2575 -1.74328125 2.515 -1.2890625 1.75 C-0.65097656 0.88375 -0.65097656 0.88375 0 0 Z " fill="#F6EBEF" transform="translate(60,181)"/>
<path d="M0 0 C5.28 1.32 10.56 2.64 16 4 C16 7.63 16 11.26 16 15 C15.01 14.34 14.02 13.68 13 13 C13 12.34 13 11.68 13 11 C12.34 11 11.68 11 11 11 C9.31002677 9.35697047 7.64783606 7.68528688 6 6 C4.90623678 5.07094466 3.80217375 4.15386074 2.6875 3.25 C1.800625 2.5075 0.91375 1.765 0 1 C0 0.67 0 0.34 0 0 Z " fill="#F8EFF0" transform="translate(184,139)"/>
<path d="M0 0 C0 0.99 0 1.98 0 3 C2.64 3 5.28 3 8 3 C8 3.99 8 4.98 8 6 C6.02 6.33 4.04 6.66 2 7 C2 7.66 2 8.32 2 9 C-0.64 9.33 -3.28 9.66 -6 10 C-6 7.03 -6 4.06 -6 1 C-3 0 -3 0 0 0 Z " fill="#D8BED7" transform="translate(6,84)"/>
<path d="M0 0 C0.33 0 0.66 0 1 0 C1.33 3.96 1.66 7.92 2 12 C1.34 11.67 0.68 11.34 0 11 C-2.45579697 14.68564084 -2.45579697 14.68564084 -3 19 C-4.65 18.67 -6.3 18.34 -8 18 C-7.814375 16.906875 -7.62875 15.81375 -7.4375 14.6875 C-6.7421932 11.06375867 -6.7421932 11.06375867 -8 8 C-8 7.34 -8 6.68 -8 6 C-8.31478446 4.66216607 -8.64587656 3.32796291 -9 2 C-8.34 1.67 -7.68 1.34 -7 1 C-7 1.66 -7 2.32 -7 3 C-6.01 3 -5.02 3 -4 3 C-3.67 5.31 -3.34 7.62 -3 10 C-2.67 10 -2.34 10 -2 10 C-1.34 6.7 -0.68 3.4 0 0 Z " fill="#EEDAEA" transform="translate(46,30)"/>
<path d="M0 0 C0.66 0.33 1.32 0.66 2 1 C1.9375 2.75 1.9375 2.75 1 5 C-1.33864434 6.5002624 -3.5287388 7.7805567 -6 9 C-7.2065625 9.61875 -7.2065625 9.61875 -8.4375 10.25 C-8.953125 10.4975 -9.46875 10.745 -10 11 C-8.35 11.33 -6.7 11.66 -5 12 C-5 12.66 -5 13.32 -5 14 C-3.948125 13.95875 -2.89625 13.9175 -1.8125 13.875 C1.74010173 13.99147875 3.84866641 14.47208068 7 16 C3.19011656 17.34913578 0.00104536 16.7386901 -3.9375 16.125 C-5.74541016 15.85042969 -5.74541016 15.85042969 -7.58984375 15.5703125 C-10.407611 15.09907078 -13.2037507 14.58365735 -16 14 C-16 13.34 -16 12.68 -16 12 C-14.27734375 10.703125 -14.27734375 10.703125 -11.9375 9.25 C-7.61079699 6.47050408 -3.8319405 3.42428725 0 0 Z " fill="#DDC8DA" transform="translate(184,65)"/>
<path d="M0 0 C1.32 0.66 2.64 1.32 4 2 C3.855625 3.051875 3.71125 4.10375 3.5625 5.1875 C2.81616844 11.10484308 2.42610508 17.05266101 2 23 C1.71125 22.360625 1.4225 21.72125 1.125 21.0625 C0.17176549 18.84793921 0.17176549 18.84793921 -2 18 C-2.33 19.32 -2.66 20.64 -3 22 C-2.88482579 19.64499052 -2.75812022 17.29150927 -2.625 14.9375 C-2.55539063 13.62652344 -2.48578125 12.31554687 -2.4140625 10.96484375 C-2.00194564 7.01863043 -1.20243433 3.75882927 0 0 Z " fill="#363533" transform="translate(59,62)"/>
<path d="M0 0 C6.625 0.75 6.625 0.75 10 3 C10.33 2.34 10.66 1.68 11 1 C13.4375 1.6875 13.4375 1.6875 16 3 C16.8125 5.625 16.8125 5.625 17 8 C15.3745692 7.85904936 13.74965949 7.71207913 12.125 7.5625 C11.22007813 7.48128906 10.31515625 7.40007812 9.3828125 7.31640625 C7 7 7 7 5 6 C3.33805547 5.64386903 1.671549 5.30791692 0 5 C0 3.35 0 1.7 0 0 Z " fill="#E1CDDD" transform="translate(0,122)"/>
<path d="M0 0 C0.66 0 1.32 0 2 0 C2.33 4.29 2.66 8.58 3 13 C3.66 13 4.32 13 5 13 C5.103125 12.46375 5.20625 11.9275 5.3125 11.375 C6.18092697 8.37497956 7.55620296 5.7620465 9 3 C10.04449911 6.13349732 9.93423645 6.98968256 9 10 C8.34 10 7.68 10 7 10 C6.34 12.97 5.68 15.94 5 19 C4.34 19 3.68 19 3 19 C2.731875 18.4225 2.46375 17.845 2.1875 17.25 C1.06360928 14.96004727 1.06360928 14.96004727 -0.5625 13 C-2.03193986 10.95556194 -2.56164648 9.45477972 -3 7 C-2.01 7 -1.02 7 0 7 C0 4.69 0 2.38 0 0 Z " fill="#DCD0D6" transform="translate(62,0)"/>
<path d="M0 0 C1.59142319 0.0001133 1.59142319 0.0001133 3.21499634 0.00022888 C4.93847794 0.00797081 4.93847794 0.00797081 6.69677734 0.01586914 C7.87033783 0.01728409 9.04389832 0.01869904 10.25302124 0.02015686 C14.0129447 0.0257685 17.77280929 0.03832301 21.53271484 0.05102539 C24.07698482 0.05603889 26.62125572 0.06060206 29.16552734 0.06469727 C35.41294337 0.07574171 41.6603249 0.09249121 47.90771484 0.11352539 C47.90771484 0.44352539 47.90771484 0.77352539 47.90771484 1.11352539 C30.74771484 1.11352539 13.58771484 1.11352539 -4.09228516 1.11352539 C-4.75228516 2.76352539 -5.41228516 4.41352539 -6.09228516 6.11352539 C-8.07228516 6.11352539 -10.05228516 6.11352539 -12.09228516 6.11352539 C-7.81228958 1.72089835 -6.10942239 -0.0144773 0 0 Z " fill="#292926" transform="translate(92.09228515625,61.886474609375)"/>
<path d="M0 0 C0 0.99 0 1.98 0 3 C-1.32 3.33 -2.64 3.66 -4 4 C-3.34 4.66 -2.68 5.32 -2 6 C-6.62 6.33 -11.24 6.66 -16 7 C-16.33 6.01 -16.66 5.02 -17 4 C-14.69 4 -12.38 4 -10 4 C-10 3.34 -10 2.68 -10 2 C-10.99 2.495 -10.99 2.495 -12 3 C-14.6723621 3.13415472 -17.32250488 3.04318541 -20 3 C-20 2.34 -20 1.68 -20 1 C-6.3667426 -0.14806378 -6.3667426 -0.14806378 0 0 Z " fill="#E2CFDE" transform="translate(194,101)"/>
<path d="M0 0 C0.66 0 1.32 0 2 0 C2.33 0.99 2.66 1.98 3 3 C1.66666667 5 0.33333333 7 -1 9 C-3.6436796 13.90969068 -5.90517872 18.98170491 -8.0703125 24.1171875 C-9 26 -9 26 -11 28 C-12.1602558 24.53686277 -12.01798955 24.04295178 -10.48828125 20.390625 C-9.77511282 19.00412996 -9.04933534 17.62406383 -8.3125 16.25 C-7.95994141 15.57195312 -7.60738281 14.89390625 -7.24414062 14.1953125 C-6.53243323 12.82654435 -5.8164495 11.45999119 -5.09619141 10.09570312 C-3.34858667 6.75462538 -1.67710683 3.37692842 0 0 Z " fill="#D8C5D4" transform="translate(109,170)"/>
<path d="M0 0 C0.68835938 0.59748047 0.68835938 0.59748047 1.390625 1.20703125 C2.00421875 1.73683594 2.6178125 2.26664063 3.25 2.8125 C3.88550781 3.36164063 4.52101562 3.91078125 5.17578125 4.4765625 C7.05356752 6.09124587 7.05356752 6.09124587 9.4375 7.6875 C10.2109375 8.3371875 10.2109375 8.3371875 11 9 C11 9.99 11 10.98 11 12 C8.36 12 5.72 12 3 12 C-0.42857143 4.71428571 -0.42857143 4.71428571 0 0 Z " fill="#EBE1E6" transform="translate(189,188)"/>
<path d="M0 0 C0.66 0 1.32 0 2 0 C4.33333333 7 6.66666667 14 9 21 C5.23355515 17.8032695 4.07054808 14.96624314 2.75 10.25 C2.41484375 9.07953125 2.0796875 7.9090625 1.734375 6.703125 C1.49203125 5.81109375 1.2496875 4.9190625 1 4 C-0.4331723 7.77836334 -1.84891855 11.52009423 -3.0625 15.375 C-4 18 -4 18 -6 20 C-4.85210257 12.90116066 -2.88549626 6.58341381 0 0 Z " fill="#E4DEDD" transform="translate(80,169)"/>
<path d="M0 0 C0.33 0 0.66 0 1 0 C1 3.3 1 6.6 1 10 C1.66 10 2.32 10 3 10 C2.34 16.27 1.68 22.54 1 29 C0.67 29 0.34 29 0 29 C-0.07347656 27.60587891 -0.07347656 27.60587891 -0.1484375 26.18359375 C-0.47655648 18.45201759 -0.47655648 18.45201759 -2.125 10.9375 C-3.07692538 7.74175051 -3.04487662 6.13462986 -2 3 C-1.34 2.01 -0.68 1.02 0 0 Z " fill="#DCDBD6" transform="translate(67,87)"/>
<path d="M0 0 C0.66 0.33 1.32 0.66 2 1 C0.68 2.32 -0.64 3.64 -2 5 C-1.34 5.33 -0.68 5.66 0 6 C-0.99 6.33 -1.98 6.66 -3 7 C-3.309375 7.66 -3.61875 8.32 -3.9375 9 C-5 11 -5 11 -7.125 11.75 C-8.053125 11.87375 -8.053125 11.87375 -9 12 C-8.67 10.68 -8.34 9.36 -8 8 C-8.99 7.67 -9.98 7.34 -11 7 C-9.73299277 6.0158875 -8.4612381 5.03788503 -7.1875 4.0625 C-6.47980469 3.51722656 -5.77210937 2.97195312 -5.04296875 2.41015625 C-3 1 -3 1 0 0 Z " fill="#835E98" transform="translate(82,55)"/>
<path d="M0 0 C2 0 4 0 6 0 C5.125 4.75 5.125 4.75 4 7 C2.0625 7.5625 2.0625 7.5625 0 8 C-0.99 8.495 -0.99 8.495 -2 9 C-1.67 7.35 -1.34 5.7 -1 4 C-5.95 6.475 -5.95 6.475 -11 9 C-9.77122115 5.31366345 -8.85395804 5.10504797 -5.5 3.375 C-2.55480881 1.95980348 -2.55480881 1.95980348 0 0 Z " fill="#ECE2E5" transform="translate(26,166)"/>
<path d="M0 0 C1.9375 0.3125 1.9375 0.3125 4 1 C4.33 1.99 4.66 2.98 5 4 C5.66 3.01 6.32 2.02 7 1 C7 2.98 7 4.96 7 7 C3.04 7 -0.92 7 -5 7 C-4.67 5.68 -4.34 4.36 -4 3 C-2.68 3 -1.36 3 0 3 C0 2.01 0 1.02 0 0 Z " fill="#EED7EA" transform="translate(5,193)"/>
<path d="M0 0 C3.3 0 6.6 0 10 0 C9.67 2.97 9.34 5.94 9 9 C4.77728219 6.46636932 2.21689838 4.43379675 0 0 Z " fill="#E9D3E8" transform="translate(0,0)"/>
<path d="M0 0 C4.28064002 -0.19909954 7.08206285 0.35034225 11 2 C12.32 2 13.64 2 15 2 C15 2.66 15 3.32 15 4 C15.99 4 16.98 4 18 4 C18 4.99 18 5.98 18 7 C16.41532272 6.71572583 14.8322943 6.42225182 13.25 6.125 C12.36828125 5.96257812 11.4865625 5.80015625 10.578125 5.6328125 C8.13052256 5.03203736 6.19400143 4.22002883 4 3 C4.33 2.34 4.66 1.68 5 1 C3.35 1 1.7 1 0 1 C0 0.67 0 0.34 0 0 Z " fill="#E5CEE2" transform="translate(182,136)"/>
<path d="M0 0 C0.33 0.66 0.66 1.32 1 2 C1.99 2.33 2.98 2.66 4 3 C5.71875 4.77734375 5.71875 4.77734375 7.5 6.9375 C9.62876021 9.50975192 11.18391145 11.12260763 14 13 C14 13.66 14 14.32 14 15 C14.639375 15.12375 15.27875 15.2475 15.9375 15.375 C16.618125 15.58125 17.29875 15.7875 18 16 C18.33 16.66 18.66 17.32 19 18 C17.35 17.67 15.7 17.34 14 17 C13.67 16.01 13.34 15.02 13 14 C11.69205572 13.28480494 10.35414909 12.62329967 9 12 C7.76019922 11.06099477 6.55089178 10.08039751 5.375 9.0625 C4.48941406 8.30646484 4.48941406 8.30646484 3.5859375 7.53515625 C2 6 2 6 0 3 C0 2.01 0 1.02 0 0 Z " fill="#DDD3D9" transform="translate(12,22)"/>
<path d="M0 0 C0.33 0 0.66 0 1 0 C1.797837 6.69613196 2.12910853 13.25766581 2 20 C1.01 20 0.02 20 -1 20 C-1.33 16.04 -1.66 12.08 -2 8 C-1.34 8 -0.68 8 0 8 C-0.185625 7.4225 -0.37125 6.845 -0.5625 6.25 C-1.04023546 3.79307475 -0.75729364 2.35602466 0 0 Z " fill="#E8DCE2" transform="translate(81,180)"/>
<path d="M0 0 C1.32 0 2.64 0 4 0 C2.69386058 3.91841827 1.16870152 6.32640809 -2 9 C-2.66 9 -3.32 9 -4 9 C-4 8.34 -4 7.68 -4 7 C-4.99 7.33 -5.98 7.66 -7 8 C-7.66 7.34 -8.32 6.68 -9 6 C-7.88625 5.566875 -6.7725 5.13375 -5.625 4.6875 C-1.82487666 3.30088881 -1.82487666 3.30088881 0 0 Z " fill="#E4DEE2" transform="translate(87,46)"/>
<path d="M0 0 C2 1 2 1 2.78125 3.07421875 C3.0184375 3.93660156 3.255625 4.79898438 3.5 5.6875 C4.32071934 8.6120938 5.16148064 11.45044599 6.1875 14.3125 C7.00821578 17.02717529 7.16573548 19.1824969 7 22 C6.34 22 5.68 22 5 22 C4.1606242 18.89743488 3.3295495 15.79270556 2.5 12.6875 C2.26152344 11.80642578 2.02304688 10.92535156 1.77734375 10.01757812 C1.55175781 9.17001953 1.32617188 8.32246094 1.09375 7.44921875 C0.88427734 6.66893311 0.67480469 5.88864746 0.45898438 5.0847168 C0 3 0 3 0 0 Z " fill="#DED1D8" transform="translate(152,168)"/>
<path d="M0 0 C0.33 1.32 0.66 2.64 1 4 C2.32 3.34 3.64 2.68 5 2 C4.67257813 2.55171875 4.34515625 3.1034375 4.0078125 3.671875 C2.83212285 6.38780923 2.79751362 8.30551759 2.875 11.25 C2.89304687 12.14203125 2.91109375 13.0340625 2.9296875 13.953125 C2.95289063 14.62859375 2.97609375 15.3040625 3 16 C2.34 16 1.68 16 1 16 C-0.85776765 12.86501708 -1.20140476 10.62528568 -1 7 C-1.66 6.67 -2.32 6.34 -3 6 C-2.34 5.01 -1.68 4.02 -1 3 C-0.67 2.01 -0.34 1.02 0 0 Z " fill="#DFCEDA" transform="translate(11,184)"/>
<path d="M0 0 C0.99 0.33 1.98 0.66 3 1 C4.34256953 5.31035482 5 8.47781648 5 13 C4.34 13 3.68 13 3 13 C3 14.32 3 15.64 3 17 C2.34 17 1.68 17 1 17 C-0.00799891 13.86400338 0.10483271 12.1330855 1 9 C1.3496418 6.66905466 1.68554487 4.33595238 2 2 C1.34 2 0.68 2 0 2 C0 1.34 0 0.68 0 0 Z " fill="#E1CEDD" transform="translate(172,105)"/>
<path d="M0 0 C3.3 0 6.6 0 10 0 C9 3 9 3 7.2578125 4.09765625 C6.20207031 4.57525391 6.20207031 4.57525391 5.125 5.0625 C2.53773626 6.25111379 0.39289013 7.40473992 -2 9 C-1.67 8.236875 -1.34 7.47375 -1 6.6875 C0.17436686 4.00930865 0.17436686 4.00930865 0 1 C0 0.67 0 0.34 0 0 Z " fill="#F8EDF1" transform="translate(73,53)"/>
<path d="M0 0 C5.6997891 4.1157286 11.05158245 8.07737367 15 14 C11.00567626 12.60378594 8.01093954 10.73451549 4.6875 8.125 C3.80449219 7.44695313 2.92148437 6.76890625 2.01171875 6.0703125 C0 4 0 4 0 0 Z " fill="#DBCAD8" transform="translate(0,45)"/>
<path d="M0 0 C0.66 0 1.32 0 2 0 C2 4.95 2 9.9 2 15 C1.34 14.01 0.68 13.02 0 12 C-0.66 12 -1.32 12 -2 12 C-2.66 12.66 -3.32 13.32 -4 14 C-3.34 11.03 -2.68 8.06 -2 5 C-1.34 5 -0.68 5 0 5 C0 3.35 0 1.7 0 0 Z " fill="#E8DFE2" transform="translate(64,183)"/>
<path d="M0 0 C4.09621053 2.28905883 7.53415091 4.85655548 11 8 C11 8.66 11 9.32 11 10 C6.9861764 8.78651845 3.30899391 7.62773046 0 5 C-0.3125 2.3125 -0.3125 2.3125 0 0 Z " fill="#FAECF2" transform="translate(0,49)"/>
<path d="M0 0 C1.175625 0.5259375 1.175625 0.5259375 2.375 1.0625 C3.674375 1.5265625 3.674375 1.5265625 5 2 C5.66 1.67 6.32 1.34 7 1 C6.3125 3.4375 6.3125 3.4375 5 6 C2.4375 6.6875 2.4375 6.6875 0 7 C-0.33 7.66 -0.66 8.32 -1 9 C-2.25541557 5.23375329 -1.37061958 3.62811066 0 0 Z " fill="#191917" transform="translate(68,47)"/>
<path d="M0 0 C0.33 0.66 0.66 1.32 1 2 C1.99 2 2.98 2 4 2 C4.144375 3.11375 4.28875 4.2275 4.4375 5.375 C4.78372035 8.82142047 4.78372035 8.82142047 6 11 C4.35 11.33 2.7 11.66 1 12 C0 7.25 0 7.25 0 5 C-0.185625 4.319375 -0.37125 3.63875 -0.5625 2.9375 C-0.706875 2.298125 -0.85125 1.65875 -1 1 C-0.67 0.67 -0.34 0.34 0 0 Z " fill="#E2CFE1" transform="translate(38,31)"/>
<path d="M0 0 C0.66 0 1.32 0 2 0 C2.22174933 1.45635371 2.42698698 2.91522956 2.625 4.375 C2.74101563 5.18710938 2.85703125 5.99921875 2.9765625 6.8359375 C2.98429687 7.55007812 2.99203125 8.26421875 3 9 C2.34 9.66 1.68 10.32 1 11 C1.33 11.66 1.66 12.32 2 13 C1.34 13.66 0.68 14.32 0 15 C-1.5625 12.1875 -1.5625 12.1875 -3 9 C-2.67 8.01 -2.34 7.02 -2 6 C-1.34 6.33 -0.68 6.66 0 7 C0 4.69 0 2.38 0 0 Z " fill="#E4DADF" transform="translate(62,0)"/>
<path d="M0 0 C0.99 0.33 1.98 0.66 3 1 C3 4.63 3 8.26 3 12 C2.01 12.33 1.02 12.66 0 13 C0 8.71 0 4.42 0 0 Z " fill="#EEDEE8" transform="translate(108,185)"/>
<path d="M0 0 C0.66 0.99 1.32 1.98 2 3 C0.68 3 -0.64 3 -2 3 C-2 3.66 -2 4.32 -2 5 C-1.21625 5.28875 -0.4325 5.5775 0.375 5.875 C3 7 3 7 5 9 C2.36 9.33 -0.28 9.66 -3 10 C-3 7.03 -3 4.06 -3 1 C-2.01 0.67 -1.02 0.34 0 0 Z " fill="#E3CBE1" transform="translate(3,84)"/>
<path d="M0 0 C2.97 0.495 2.97 0.495 6 1 C5.01 3.31 4.02 5.62 3 8 C1.68 7.67 0.36 7.34 -1 7 C-0.67 4.69 -0.34 2.38 0 0 Z " fill="#7F5D97" transform="translate(66,71)"/>
<path d="M0 0 C0.66 0 1.32 0 2 0 C2 1.32 2 2.64 2 4 C1.34 4 0.68 4 0 4 C-0.33 4.99 -0.66 5.98 -1 7 C-3.3125 7.625 -3.3125 7.625 -6 8 C-6.99 7.34 -7.98 6.68 -9 6 C-5.73203373 3.29547619 -4.20203536 3 0 3 C0 2.01 0 1.02 0 0 Z " fill="#81519A" transform="translate(94,48)"/>
<path d="M0 0 C3.13952883 0.8885459 4.41248313 1.36688894 6.3125 3.9375 C4.6625 3.9375 3.0125 3.9375 1.3125 3.9375 C0.9825 2.9475 0.6525 1.9575 0.3125 0.9375 C-0.6775 0.9375 -1.6675 0.9375 -2.6875 0.9375 C-3.0175 2.2575 -3.3475 3.5775 -3.6875 4.9375 C-5.5625 5.5625 -5.5625 5.5625 -7.6875 5.9375 C-8.3475 5.2775 -9.0075 4.6175 -9.6875 3.9375 C-6.24513285 1.16681425 -4.49286418 -0.07615024 0 0 Z " fill="#2F2E2C" transform="translate(81.6875,38.0625)"/>
<path d="M0 0 C0.66 0.33 1.32 0.66 2 1 C1.67 2.98 1.34 4.96 1 7 C-0.32 7 -1.64 7 -3 7 C-2.67 8.65 -2.34 10.3 -2 12 C-2.66 12 -3.32 12 -4 12 C-4.125 4.25 -4.125 4.25 -3 2 C-2.01 2 -1.02 2 0 2 C0 1.34 0 0.68 0 0 Z " fill="#E7DCE0" transform="translate(4,167)"/>
<path d="M0 0 C1.32 0.33 2.64 0.66 4 1 C4.66 3.97 5.32 6.94 6 10 C5.01 10.33 4.02 10.66 3 11 C2.34 10.67 1.68 10.34 1 10 C1.020625 9.0925 1.04125 8.185 1.0625 7.25 C1.0110245 4.57327412 0.7784983 2.53011948 0 0 Z " fill="#DAC2DA" transform="translate(34,19)"/>
<path d="M0 0 C0.33 0 0.66 0 1 0 C1.33 5.61 1.66 11.22 2 17 C1.01 17 0.02 17 -1 17 C-1.18451025 5.47835991 -1.18451025 5.47835991 0 0 Z " fill="#E3CFDF" transform="translate(113,183)"/>
<path d="M0 0 C3.48331435 3.01887244 4.79157144 5.56909529 6 10 C6.66 10 7.32 10 8 10 C8.66 12.64 9.32 15.28 10 18 C6.36205746 15.57470497 5.14666583 12.8138396 3.3125 9 C2.83200195 8.03707031 2.83200195 8.03707031 2.34179688 7.0546875 C0 2.28121668 0 2.28121668 0 0 Z " fill="#E7E0DE" transform="translate(158,170)"/>
<path d="M0 0 C4.37040631 0.87894782 7.30389268 3.23741811 10.75 5.9375 C11.35199219 6.39318359 11.95398438 6.84886719 12.57421875 7.31835938 C14.09145961 8.49327492 15.55116855 9.74169407 17 11 C17 11.66 17 12.32 17 13 C13.83715933 11.5479686 11.23584692 9.77057857 8.5 7.625 C7.7471875 7.03976563 6.994375 6.45453125 6.21875 5.8515625 C4.0120678 4.01007066 1.9992676 2.06288066 0 0 Z " fill="#E7E1DE" transform="translate(183,110)"/>
<path d="M0 0 C0.66 0.33 1.32 0.66 2 1 C1.9375 2.75 1.9375 2.75 1 5 C-1.24164322 6.59501537 -3.53566643 7.74543018 -6 9 C-6.66 8.34 -7.32 7.68 -8 7 C-5.36 4.69 -2.72 2.38 0 0 Z " fill="#E1D1E1" transform="translate(184,65)"/>
<path d="M0 0 C3.01217112 0.64449607 5.51655836 1.65022182 8.25 3.0625 C8.95640625 3.42472656 9.6628125 3.78695312 10.390625 4.16015625 C10.92171875 4.43730469 11.4528125 4.71445312 12 5 C12 5.66 12 6.32 12 7 C7.24518354 6.42365861 4.02951788 4.44931479 0 2 C0 1.34 0 0.68 0 0 Z " fill="#B7B4AD" transform="translate(149,41)"/>
<path d="M0 0 C4.60139641 1.48868707 7.50227094 3.74629855 11 7 C11 7.66 11 8.32 11 9 C6.88949336 7.54923295 3.46285873 5.65754275 0 3 C0 2.01 0 1.02 0 0 Z " fill="#B6B3AC" transform="translate(113,19)"/>
<path d="M0 0 C3.28754511 0.57889381 4.93672495 1.54828411 7.25 3.9375 C7.77078125 4.46214844 8.2915625 4.98679687 8.828125 5.52734375 C10 7 10 7 10 9 C5.57238086 7.60846256 3.0443745 5.47928514 0 2 C0 1.34 0 0.68 0 0 Z " fill="#B5B2AB" transform="translate(97,6)"/>
<path d="M0 0 C0 4.05345102 -1.58160112 5.8215329 -4 9 C-4.99 9.33 -5.98 9.66 -7 10 C-6.67 8.68 -6.34 7.36 -6 6 C-6.33 6 -6.66 6 -7 6 C-8.33568021 5.67619874 -9.66923011 5.34342449 -11 5 C-8.09399739 3.74335022 -6.20395416 3 -3 3 C-2.67 2.34 -2.34 1.68 -2 1 C-1.34 0.67 -0.68 0.34 0 0 Z " fill="#E9E2E0" transform="translate(27,97)"/>
<path d="M0 0 C1.99788438 0.34578768 3.99759451 0.68143549 6 1 C6 1.33 6 1.66 6 2 C3.33333333 2.66666667 0.66666667 3.33333333 -2 4 C-2.74765625 4.18691406 -3.4953125 4.37382813 -4.265625 4.56640625 C-4.83796875 4.70949219 -5.4103125 4.85257812 -6 5 C-6 3.35 -6 1.7 -6 0 C-3.42888996 -1.28555502 -2.73017334 -0.75838148 0 0 Z " fill="#EEECE8" transform="translate(87,90)"/>
<path d="M0 0 C7.625 0.875 7.625 0.875 11 2 C11 2.99 11 3.98 11 5 C7.37 4.34 3.74 3.68 0 3 C0 2.01 0 1.02 0 0 Z " fill="#B7B1AE" transform="translate(189,56)"/>
<path d="M0 0 C3.7910119 1.44950455 7.3874638 3.15172566 11 5 C11 5.99 11 6.98 11 8 C7.2089881 6.55049545 3.6125362 4.84827434 0 3 C0 2.01 0 1.02 0 0 Z " fill="#B5B2AB" transform="translate(131,31)"/>
<path d="M0 0 C4.3177458 0.50797009 8.03302114 1.19682779 12 3 C12 3.66 12 4.32 12 5 C7.6822542 4.49202991 3.96697886 3.80317221 0 2 C0 1.34 0 0.68 0 0 Z " fill="#B4B1AA" transform="translate(169,50)"/>
<path d="M0 0 C3.08089673 2.77280706 4.68775452 5.06326356 6 9 C5.01 9.99 4.02 10.98 3 12 C-0.42857143 4.71428571 -0.42857143 4.71428571 0 0 Z " fill="#FAEEF3" transform="translate(189,188)"/>
<path d="M0 0 C0.33 0 0.66 0 1 0 C1 5.61 1 11.22 1 17 C0.34 16.67 -0.32 16.34 -1 16 C-1.59355614 13.35139573 -1.74209269 10.70802678 -2 8 C-1.34 8 -0.68 8 0 8 C0 5.36 0 2.72 0 0 Z " fill="#EBE0EB" transform="translate(64,78)"/>
<path d="M0 0 C5.27749285 0.53851968 9.25645564 1.77343836 14 4 C14 4.66 14 5.32 14 6 C4.82713348 4.66958425 4.82713348 4.66958425 1.375 1.875 C0.92125 1.25625 0.4675 0.6375 0 0 Z " fill="#E5D7E2" transform="translate(186,79)"/>
<path d="M0 0 C2.4375 0.75 2.4375 0.75 4.4375 2.75 C5.75497324 3.44748583 7.08664193 4.11959957 8.4375 4.75 C5.7975 4.75 3.1575 4.75 0.4375 4.75 C0.4375 4.09 0.4375 3.43 0.4375 2.75 C-0.5525 3.08 -1.5425 3.41 -2.5625 3.75 C-3.5525 3.09 -4.5425 2.43 -5.5625 1.75 C-2.5625 -0.25 -2.5625 -0.25 0 0 Z " fill="#F1DDF0" transform="translate(178.5625,74.25)"/>
<path d="M0 0 C0.66 0 1.32 0 2 0 C1.34 1.32 0.68 2.64 0 4 C-0.66 4 -1.32 4 -2 4 C-2 4.66 -2 5.32 -2 6 C-6.625 8.125 -6.625 8.125 -10 7 C-8.90241493 6.15801693 -7.79664683 5.32669329 -6.6875 4.5 C-6.07261719 4.0359375 -5.45773438 3.571875 -4.82421875 3.09375 C-3 2 -3 2 0 2 C0 1.34 0 0.68 0 0 Z " fill="#E6D9E2" transform="translate(196,60)"/>
<path d="M0 0 C0.33 0.66 0.66 1.32 1 2 C2.98 1.67 4.96 1.34 7 1 C5.91796875 2.48828125 5.91796875 2.48828125 4 4 C0.86328125 4.29296875 0.86328125 4.29296875 -2.6875 4.1875 C-4.45673828 4.14689453 -4.45673828 4.14689453 -6.26171875 4.10546875 C-7.61716797 4.05326172 -7.61716797 4.05326172 -9 4 C-9 3.67 -9 3.34 -9 3 C-7.88625 2.690625 -6.7725 2.38125 -5.625 2.0625 C-2.2054845 1.17673517 -2.2054845 1.17673517 0 0 Z " fill="#75538B" transform="translate(95,54)"/>
<path d="M0 0 C0.66 0.33 1.32 0.66 2 1 C1.67 1.66 1.34 2.32 1 3 C0.34 3 -0.32 3 -1 3 C-0.01 4.65 0.98 6.3 2 8 C-0.33333333 8 -2.66666667 8 -5 8 C-5.33 8.66 -5.66 9.32 -6 10 C-5.49396008 7.83125748 -5.00016187 6.00032373 -4 4 C-3.34 4 -2.68 4 -2 4 C-1.34 2.68 -0.68 1.36 0 0 Z " fill="#F1E4EC" transform="translate(6,161)"/>
<path d="M0 0 C2.97 0.495 2.97 0.495 6 1 C6 1.66 6 2.32 6 3 C6.66 3 7.32 3 8 3 C8 3.66 8 4.32 8 5 C8.66 5 9.32 5 10 5 C10 5.66 10 6.32 10 7 C9.01 7.33 8.02 7.66 7 8 C7 7.34 7 6.68 7 6 C6.34 6 5.68 6 5 6 C5 5.01 5 4.02 5 3 C3.35 3 1.7 3 0 3 C0 2.01 0 1.02 0 0 Z " fill="#D7BCD5" transform="translate(16,125)"/>
<path d="M0 0 C1.67542976 0.28604898 3.34385343 0.61781233 5 1 C5 1.99 5 2.98 5 4 C4.01 4 3.02 4 2 4 C2.66 5.32 3.32 6.64 4 8 C3.01 8.66 2.02 9.32 1 10 C0.63883954 8.5225254 0.28624952 7.04295325 -0.0625 5.5625 C-0.25972656 4.73878906 -0.45695312 3.91507813 -0.66015625 3.06640625 C-0.82837891 2.04353516 -0.82837891 2.04353516 -1 1 C-0.67 0.67 -0.34 0.34 0 0 Z " fill="#EFDCEC" transform="translate(36,29)"/>
<path d="M0 0 C0.33 0 0.66 0 1 0 C1.33 5.94 1.66 11.88 2 18 C-0.17094477 15.82905523 -0.4863 14.84247144 -1.1875 11.9375 C-1.36667969 11.22464844 -1.54585937 10.51179687 -1.73046875 9.77734375 C-1.81941406 9.19082031 -1.90835938 8.60429687 -2 8 C-1.67 7.67 -1.34 7.34 -1 7 C-0.63239269 4.67182036 -0.29758419 2.3381615 0 0 Z " fill="#E9D6E1" transform="translate(39,168)"/>
<path d="M0 0 C1.5625 1.1875 1.5625 1.1875 3 3 C2.8125 5.625 2.8125 5.625 2 8 C1.01 8.495 1.01 8.495 0 9 C0 8.34 0 7.68 0 7 C-0.66 6.67 -1.32 6.34 -2 6 C-1.34 4.02 -0.68 2.04 0 0 Z " fill="#F1EBEB" transform="translate(80,172)"/>
<path d="M0 0 C4.29 0 8.58 0 13 0 C12.67 0.99 12.34 1.98 12 3 C11.34 3 10.68 3 10 3 C10 2.34 10 1.68 10 1 C9.01 1.495 9.01 1.495 8 2 C5.3276379 2.13415472 2.67749512 2.04318541 0 2 C0 1.34 0 0.68 0 0 Z " fill="#EAD0E8" transform="translate(174,102)"/>
<path d="M0 0 C3.465 1.485 3.465 1.485 7 3 C7 3.66 7 4.32 7 5 C5.02 5 3.04 5 1 5 C0.67 5.66 0.34 6.32 0 7 C0 4.69 0 2.38 0 0 Z " fill="#F6EEF1" transform="translate(0,56)"/>
<path d="M0 0 C0.66 0.99 1.32 1.98 2 3 C2.66 2.01 3.32 1.02 4 0 C4 1.98 4 3.96 4 6 C1.69 6 -0.62 6 -3 6 C-3 5.34 -3 4.68 -3 4 C-2.34 4 -1.68 4 -1 4 C-0.67 2.68 -0.34 1.36 0 0 Z " fill="#F7EBF2" transform="translate(8,194)"/>
<path d="M0 0 C2.125 0.375 2.125 0.375 4 1 C3.67 1.66 3.34 2.32 3 3 C2.34 3 1.68 3 1 3 C0.34 4.32 -0.32 5.64 -1 7 C-1.66 7 -2.32 7 -3 7 C-2.25 2.25 -2.25 2.25 0 0 Z " fill="#E5CCE4" transform="translate(25,138)"/>
<path d="M0 0 C1.50433594 0.01353516 1.50433594 0.01353516 3.0390625 0.02734375 C3.80992188 0.03894531 4.58078125 0.05054688 5.375 0.0625 C5.375 0.3925 5.375 0.7225 5.375 1.0625 C4.80910156 1.18367188 4.24320313 1.30484375 3.66015625 1.4296875 C2.55994141 1.68105469 2.55994141 1.68105469 1.4375 1.9375 C0.70660156 2.09992187 -0.02429688 2.26234375 -0.77734375 2.4296875 C-2.83200294 2.89211523 -2.83200294 2.89211523 -3.625 5.0625 C-4.285 5.0625 -4.945 5.0625 -5.625 5.0625 C-6.285 3.7425 -6.945 2.4225 -7.625 1.0625 C-4.98041621 -0.25979189 -2.94738699 -0.03427194 0 0 Z " fill="#E9DCE9" transform="translate(90.625,57.9375)"/>
<path d="M0 0 C0.33 0.66 0.66 1.32 1 2 C-0.10281127 3.27200971 -1.20730769 4.54255853 -2.3125 5.8125 C-3.23482422 6.87404297 -3.23482422 6.87404297 -4.17578125 7.95703125 C-5.73334335 9.70136739 -7.32658875 11.36778041 -9 13 C-7.47987323 7.59510481 -3.72614782 4.01507372 0 0 Z " fill="#E9E0E2" transform="translate(102,183)"/>
<path d="M0 0 C2.31 0 4.62 0 7 0 C7 0.99 7 1.98 7 3 C4.36 3.33 1.72 3.66 -1 4 C-0.67 2.68 -0.34 1.36 0 0 Z " fill="#E7DBE1" transform="translate(187,101)"/>
<path d="M0 0 C0.33 0.66 0.66 1.32 1 2 C1.99 2.33 2.98 2.66 4 3 C5.84499398 4.87617698 7.3683599 6.92737609 9 9 C8.01 9.495 8.01 9.495 7 10 C4.09197539 7.78071806 2.04687238 6.07030857 0 3 C0 2.01 0 1.02 0 0 Z " fill="#E7DFE0" transform="translate(12,22)"/>
<path d="M0 0 C0.33 0 0.66 0 1 0 C1.08096803 1.45742463 1.13917774 2.91612807 1.1875 4.375 C1.22230469 5.18710938 1.25710937 5.99921875 1.29296875 6.8359375 C1.19628906 7.55007812 1.09960938 8.26421875 1 9 C0.01 9.66 -0.98 10.32 -2 11 C-1.85892253 9.54119891 -1.71197585 8.08296449 -1.5625 6.625 C-1.48128906 5.81289062 -1.40007812 5.00078125 -1.31640625 4.1640625 C-1 2 -1 2 0 0 Z " fill="#363433" transform="translate(73,79)"/>
<path d="M0 0 C1.32 0 2.64 0 4 0 C3.3125 2.4375 3.3125 2.4375 2 5 C-0.625 5.8125 -0.625 5.8125 -3 6 C-3 5.34 -3 4.68 -3 4 C-2.34 4 -1.68 4 -1 4 C-0.67 2.68 -0.34 1.36 0 0 Z " fill="#F7EDF3" transform="translate(67,62)"/>
<path d="M0 0 C0.33 0 0.66 0 1 0 C1.05422947 1.4370809 1.09289723 2.87475462 1.125 4.3125 C1.14820313 5.11300781 1.17140625 5.91351563 1.1953125 6.73828125 C1 9 1 9 -1 12 C-1 10.35 -1 8.7 -1 7 C-1.66 6.67 -2.32 6.34 -3 6 C-2.34 5.01 -1.68 4.02 -1 3 C-0.67 2.01 -0.34 1.02 0 0 Z " fill="#D9C0D6" transform="translate(11,184)"/>
<path d="M0 0 C2.46254526 2.1413437 3.69050349 3.69870394 4 7 C3.01 8.485 3.01 8.485 2 10 C1.87625 9.195625 1.7525 8.39125 1.625 7.5625 C1.315625 6.2940625 1.315625 6.2940625 1 5 C0.34 4.67 -0.32 4.34 -1 4 C-0.34 4 0.32 4 1 4 C0.67 2.68 0.34 1.36 0 0 Z " fill="#DFC9DB" transform="translate(185,154)"/>
<path d="M0 0 C3.41703059 2.2780204 3.79651189 3.38372165 5.1875 7.125 C5.53167969 8.03507813 5.87585938 8.94515625 6.23046875 9.8828125 C6.48441406 10.58148438 6.73835937 11.28015625 7 12 C6.34 12 5.68 12 5 12 C4.15885829 10.56705502 3.32734313 9.12845595 2.5 7.6875 C1.80390625 6.48673828 1.80390625 6.48673828 1.09375 5.26171875 C0 3 0 3 0 0 Z " fill="#E5DFDD" transform="translate(168,188)"/>
<path d="M0 0 C1.98 0.99 1.98 0.99 4 2 C4 4.31 4 6.62 4 9 C1.47740939 7.02579865 1.0070192 6.03254358 0.3125 2.8125 C0.209375 1.884375 0.10625 0.95625 0 0 Z " fill="#DECEDA" transform="translate(145,150)"/>
<path d="M0 0 C0.33 0 0.66 0 1 0 C1 2.97 1 5.94 1 9 C-0.32 9.33 -1.64 9.66 -3 10 C-2.25 3.375 -2.25 3.375 0 0 Z " fill="#DCD0DD" transform="translate(67,87)"/>
<path d="M0 0 C2.31 0.66 4.62 1.32 7 2 C7 2.99 7 3.98 7 5 C4.0625 4.1875 4.0625 4.1875 1 3 C0.67 2.01 0.34 1.02 0 0 Z " fill="#E8D5E3" transform="translate(11,58)"/>
<path d="M0 0 C2.0625 0.4375 2.0625 0.4375 4 1 C3.01 1.33 2.02 1.66 1 2 C1 2.99 1 3.98 1 5 C0.34 5 -0.32 5 -1 5 C-1 5.66 -1 6.32 -1 7 C-1.66 7 -2.32 7 -3 7 C-1.125 1.125 -1.125 1.125 0 0 Z " fill="#755386" transform="translate(92,45)"/>
<path d="M0 0 C0.33 0 0.66 0 1 0 C1.36923077 5.53846154 1.36923077 5.53846154 -0.5 7.875 C-1.2425 8.431875 -1.2425 8.431875 -2 9 C-2.99 8.67 -3.98 8.34 -5 8 C-4.360625 7.236875 -3.72125 6.47375 -3.0625 5.6875 C-0.85767219 3.11753287 -0.85767219 3.11753287 0 0 Z " fill="#F1E4EE" transform="translate(34,129)"/>
<path d="M0 0 C0.99 0 1.98 0 3 0 C3 0.99 3 1.98 3 3 C3.66 3 4.32 3 5 3 C5.33 3.99 5.66 4.98 6 6 C4.35 6 2.7 6 1 6 C0 1.125 0 1.125 0 0 Z " fill="#E2C7E2" transform="translate(18,128)"/>
<path d="M0 0 C0.53625 0.391875 1.0725 0.78375 1.625 1.1875 C1.625 1.5175 1.625 1.8475 1.625 2.1875 C-1.6875 3.3125 -1.6875 3.3125 -5.375 4.1875 C-6.365 3.5275 -7.355 2.8675 -8.375 2.1875 C-2.95961538 -1.0125 -2.95961538 -1.0125 0 0 Z " fill="#DDC2E0" transform="translate(11.375,59.8125)"/>
<path d="M0 0 C0.99 0.33 1.98 0.66 3 1 C1.92598892 3.91517292 1.22189824 5.77810176 -1 8 C-0.979375 7.21625 -0.95875 6.4325 -0.9375 5.625 C-0.81315937 3.01885039 -0.81315937 3.01885039 -2 1 C-1.34 0.67 -0.68 0.34 0 0 Z " fill="#E6D9E5" transform="translate(46,43)"/>
<path d="M0 0 C0.33 0.66 0.66 1.32 1 2 C2.65 1.34 4.3 0.68 6 0 C5 3 5 3 4 4 C2.33382885 4.04063832 0.66611905 4.042721 -1 4 C-0.67 2.68 -0.34 1.36 0 0 Z " fill="#EEE7E5" transform="translate(92,196)"/>
<path d="M0 0 C1.485 0.99 1.485 0.99 3 2 C3 2.66 3 3.32 3 4 C3.66 4 4.32 4 5 4 C5 4.66 5 5.32 5 6 C3.35 5.67 1.7 5.34 0 5 C0 3.35 0 1.7 0 0 Z " fill="#ECD7E6" transform="translate(0,122)"/>
<path d="M0 0 C0.33 0 0.66 0 1 0 C0.67 2.97 0.34 5.94 0 9 C-0.99 8.34 -1.98 7.68 -3 7 C-3 6.01 -3 5.02 -3 4 C-2.01 4 -1.02 4 0 4 C0 2.68 0 1.36 0 0 Z " fill="#DEC7E0" transform="translate(9,0)"/>
<path d="M0 0 C1.65 0 3.3 0 5 0 C5 0.66 5 1.32 5 2 C6.65 2 8.3 2 10 2 C10 2.33 10 2.66 10 3 C3.375 3.125 3.375 3.125 0 2 C0 1.34 0 0.68 0 0 Z " fill="#EADBE5" transform="translate(50,197)"/>
<path d="M0 0 C0.66 0 1.32 0 2 0 C1.46930939 3.82097239 0.50298434 6.06171403 -2 9 C-1.34 6.03 -0.68 3.06 0 0 Z " fill="#F6EBF0" transform="translate(62,188)"/>
<path d="M0 0 C0.66 0 1.32 0 2 0 C2 2.64 2 5.28 2 8 C1.01 7.34 0.02 6.68 -1 6 C-0.67 4.02 -0.34 2.04 0 0 Z " fill="#FBE9F5" transform="translate(108,177)"/>
</svg>
