<svg width="96" height="96" viewBox="0 0 96 96" fill="none" xmlns="http://www.w3.org/2000/svg">
  <rect width="96" height="96" rx="24" fill="white"/>
  <path d="M58.6 28.4C55.3 25.9 51.2 24.4 46.5 24.4C34.7 24.4 25.8 33.5 25.8 45.6C25.8 57.9 34.9 67.6 47.3 67.6C55 67.6 61.7 64 65.4 58.2V37.8H46.7V48.8H53.6V53.1C52 54.8 49.8 55.8 47.3 55.8C41.2 55.8 37.2 51.5 37.2 45.5C37.2 39.7 41.2 35.6 46.8 35.6C49.3 35.6 51.8 36.4 53.9 38L58.6 28.4Z" fill="#050505"/>
  <path d="M57.8 19.7L64.8 23.8L57.6 27.8L50.6 23.7L57.8 19.7Z" fill="#8B5CF6"/>
</svg>
